<svg width="24" height="24" viewBox="0 0 24 24" fill="none" xmlns="http://www.w3.org/2000/svg">
<path fill-rule="evenodd" clip-rule="evenodd" d="M12 1C5.925 1 1 5.925 1 12C1 18.075 5.925 23 12 23C18.075 23 23 18.075 23 12C23 5.925 18.075 1 12 1ZM10 8.8C10 8.505 10.152 8.234 10.396 8.095C10.5146 8.02679 10.6503 7.99427 10.7869 8.00137C10.9235 8.00847 11.0551 8.05487 11.166 8.135L15.666 11.335C15.7705 11.4114 15.8552 11.5115 15.9133 11.6272C15.9714 11.7428 16.0011 11.8706 16 12C16.0013 12.1296 15.9716 12.2576 15.9136 12.3734C15.8555 12.4892 15.7706 12.5895 15.666 12.666L11.166 15.866C11.0551 15.9461 10.9235 15.9925 10.7869 15.9996C10.6503 16.0067 10.5146 15.9742 10.396 15.906C10.2738 15.8335 10.1729 15.73 10.1033 15.6061C10.0338 15.4822 9.99819 15.3421 10 15.2V8.8Z" fill="#71B0D1"/>
</svg>
