<svg width="197" height="57" viewBox="0 0 197 57" fill="none" xmlns="http://www.w3.org/2000/svg">
<path d="M4.464 44.04C4.488 45.36 4.008 46.224 2.64 46.944C1.968 47.304 1.584 47.856 1.584 48.48C1.584 49.368 2.256 50.04 3.216 50.04C4.728 50.04 5.736 48.768 5.736 47.04C5.736 45.912 5.328 44.928 4.728 43.968C4.656 43.848 4.464 43.896 4.464 44.04ZM7.584 44.16C7.44 44.112 7.248 44.232 7.344 44.352C7.992 45.168 8.112 46.32 7.992 47.568C7.968 47.832 7.944 48.144 7.944 48.384C7.944 49.176 8.472 49.896 9.384 49.896C10.344 49.896 11.208 49.128 11.208 47.976C11.208 46.464 10.032 44.904 7.584 44.16ZM12.048 44.112C11.904 44.088 11.784 44.208 11.88 44.304C12.696 45.144 13.224 46.488 13.296 48.12C13.344 49.176 13.824 49.824 14.712 49.824C15.744 49.824 16.56 49.104 16.56 47.904C16.56 46.32 14.88 44.568 12.048 44.112ZM16.704 44.16C16.56 44.16 16.44 44.328 16.56 44.4C17.904 45.288 18.672 46.68 19.008 48.408C19.2 49.392 19.752 49.896 20.544 49.896C21.672 49.896 22.416 49.152 22.416 48C22.416 46.2 20.568 44.448 16.704 44.16ZM13.368 42.792V40.08H20.04C20.472 40.08 20.544 39.984 20.544 39.816C20.544 39.6 20.472 39.504 19.56 38.712C18.576 37.848 18.48 37.8 18.24 37.8C18 37.8 17.952 37.848 16.416 39.6H13.368V36.648H16.992V36.696C16.992 37.488 17.136 37.608 18.24 37.608C19.392 37.608 20.256 37.224 20.256 36.504C20.256 35.592 20.136 34.536 20.136 32.928V30.936C20.808 30.36 20.88 30.24 20.88 30.024C20.88 29.784 20.712 29.616 19.728 28.8C18.576 27.864 18.408 27.816 18.096 27.816C17.856 27.816 17.736 27.912 16.608 29.112H7.272C7.008 28.896 6.192 28.608 3.768 27.96C3.84 29.136 3.84 30.624 3.84 32.568C3.84 34.344 3.696 36.84 3.696 37.224C3.696 38.04 3.864 38.16 4.896 38.16C6.144 38.16 6.744 37.752 6.744 37.008V36.648H10.272V39.6H7.464C6.192 39.6 5.088 39.576 3.576 39.432L3.792 40.248C5.184 40.104 6.24 40.08 7.464 40.08H10.272V42.792H5.04C3.768 42.792 2.664 42.768 1.152 42.624L1.368 43.44C2.76 43.296 3.816 43.272 5.04 43.272H23.016C23.208 43.272 23.28 43.176 23.28 43.008C23.28 42.792 23.208 42.672 22.272 41.856C21.024 40.752 20.928 40.704 20.664 40.704C20.424 40.704 20.352 40.752 18.672 42.792H13.368ZM6.744 36.168V33.12H10.272V36.168H6.744ZM13.368 30.192C13.776 29.928 13.968 29.784 14.016 29.592H16.992V32.64H13.368V30.192ZM10.176 29.592C10.248 30.48 10.272 31.368 10.272 32.64H6.744V29.856C7.008 29.76 7.152 29.664 7.248 29.592H10.176ZM13.368 36.168V33.12H16.992V36.168H13.368ZM44.16 35.904C46.608 34.776 49.56 32.64 51.24 30.744C52.104 30.672 52.32 30.576 52.32 30.216C52.32 29.856 52.104 29.688 48.744 28.008C48.528 28.728 48.384 29.088 48.192 29.52C46.872 32.4 45.168 34.752 44.016 35.712C43.896 35.808 44.04 35.976 44.16 35.904ZM48.984 35.112C47.712 37.968 45.384 41.112 44.04 42.096C43.92 42.192 44.016 42.36 44.16 42.312C46.152 41.496 49.536 39.072 51.912 36.36C52.752 36.336 53.112 36.24 53.112 35.88C53.112 35.52 52.848 35.256 49.536 33.6C49.32 34.32 49.176 34.656 48.984 35.112ZM59.376 44.952C59.232 44.952 59.112 45.168 59.256 45.216C60.936 45.84 62.256 47.4 63.048 49.104C63.36 49.8 63.744 50.064 64.464 50.064C65.424 50.064 66.024 49.344 66.024 48.336C66.024 46.68 63.96 44.952 59.376 44.952ZM55.8 29.592C55.032 29.592 54.192 29.568 52.704 29.424L52.92 30.24C54.312 30.12 55.128 30.072 55.8 30.072H57.24C57.096 31.344 56.928 32.496 56.76 33.408C56.328 33.192 55.392 32.928 53.52 32.472C53.616 33.792 53.64 34.344 53.64 37.536C53.64 38.784 53.592 40.2 53.568 41.448C53.256 41.16 52.416 40.656 50.136 39.552C49.872 40.272 49.728 40.632 49.512 41.088C47.976 44.424 45.264 47.832 43.752 48.816C43.632 48.888 43.728 49.08 43.872 49.032C46.608 48.072 50.88 44.688 52.584 42.312C53.064 42.288 53.376 42.216 53.544 42.096C53.496 43.2 53.472 44.088 53.472 44.448C53.472 45.096 53.616 45.336 54.6 45.336C54.96 45.336 55.32 45.288 55.632 45.192L55.392 45.432C53.52 47.328 50.832 49.08 48.576 49.8C48.432 49.848 48.528 50.064 48.672 50.04C52.272 49.68 55.464 48.528 57.936 47.208C58.896 47.208 59.16 47.112 59.16 46.752C59.16 46.416 58.776 45.96 56.352 44.688C56.424 44.568 56.472 44.448 56.472 44.304H61.704V44.352C61.704 45 62.016 45.192 62.952 45.192C64.2 45.192 64.872 44.928 64.872 44.208C64.872 43.344 64.704 40.44 64.704 37.584V35.328C65.352 34.776 65.4 34.68 65.4 34.464C65.4 34.248 65.28 34.104 64.344 33.312C63.192 32.352 63.024 32.304 62.76 32.304C62.544 32.304 62.448 32.376 61.32 33.528H58.08C58.944 32.592 59.808 31.656 60.6 30.696C61.176 30.576 61.416 30.36 61.44 30.072H66.48C66.648 30.072 66.744 29.976 66.744 29.832C66.744 29.64 66.672 29.544 65.616 28.584C64.608 27.672 64.488 27.6 64.272 27.6C64.032 27.6 63.936 27.672 62.328 29.592H55.8ZM56.472 43.824V40.632H61.704V43.824H56.472ZM61.704 37.272V40.152H56.472V37.272H61.704ZM56.472 36.792V34.32C56.712 34.2 56.88 34.104 56.976 34.008H61.704V36.792H56.472ZM106.44 41.592V40.104C107.016 39.576 107.064 39.528 107.064 39.336C107.064 39.096 106.968 38.976 106.056 38.304C105.48 37.896 105.168 37.68 104.952 37.56C105.576 37.416 105.864 37.128 105.864 36.648C105.864 36.432 105.768 35.64 105.768 34.992V34.632C106.32 34.128 106.344 34.056 106.344 33.84C106.344 33.6 106.2 33.48 105.192 32.784C104.256 32.136 104.04 32.064 103.728 32.064C103.488 32.064 103.392 32.112 102.384 33.264H99.528V31.464H109.2C109.368 31.464 109.464 31.344 109.464 31.152C109.464 30.888 109.344 30.768 108.456 29.952C107.184 28.776 107.112 28.752 106.872 28.752C106.608 28.752 106.56 28.8 104.88 30.984H99.528V29.16C100.32 28.824 100.512 28.632 100.512 28.368C100.512 27.96 100.2 27.72 96.408 27.48C96.528 28.44 96.552 28.968 96.576 30.984H90.504C89.712 30.984 88.584 30.96 87.288 30.816L87.504 31.632C88.656 31.488 89.736 31.464 90.504 31.464H96.576V33.264H94.056C93.816 33.024 92.976 32.784 90.48 32.28C90.6 33.408 90.624 34.176 90.624 34.848C90.624 36.024 90.528 36.72 90.528 37.128C90.528 37.776 90.792 37.968 91.512 37.968C92.904 37.968 93.48 37.632 93.48 36.912V36.792H96.576V38.808H92.28C91.56 38.808 90.48 38.76 89.304 38.64L89.52 39.456C90.672 39.312 91.704 39.288 92.28 39.288H96.576V41.592H90.384C89.664 41.592 88.584 41.544 87.408 41.424L87.624 42.24C88.776 42.096 89.808 42.072 90.384 42.072H96.576V44.424H92.328C91.608 44.424 90.528 44.376 89.352 44.256L89.568 45.072C90.72 44.928 91.752 44.904 92.328 44.904H96.576V45.576C96.576 46.224 96.336 46.824 95.64 46.92C94.872 47.016 94.008 47.016 92.496 46.968C92.352 46.968 92.352 47.184 92.496 47.232C94.176 47.712 94.752 48.24 95.112 49.536C95.232 49.992 95.448 50.16 95.88 50.16C96.672 50.16 97.416 49.992 98.28 49.488C99.168 48.936 99.696 48.264 99.696 46.92C99.696 46.608 99.672 45.912 99.648 44.904H103.416V45.96C103.416 46.776 103.632 46.848 104.664 46.848C106.2 46.848 106.56 46.416 106.56 45.744C106.56 45.384 106.44 44.472 106.44 42.072H109.728C109.896 42.072 109.992 42.024 109.992 41.808C109.992 41.64 109.92 41.568 109.176 40.752C108.264 39.744 108.168 39.72 107.976 39.72C107.808 39.72 107.736 39.744 106.488 41.592H106.44ZM103.416 44.424H99.624C99.624 43.752 99.6 42.96 99.576 42.072H103.416V44.424ZM103.416 39.288V41.592H99.576C99.552 40.872 99.552 40.104 99.552 39.288H103.416ZM99.528 36.792H102.648V36.864C102.648 37.512 102.816 37.68 103.728 37.68H104.064C103.872 37.848 103.56 38.184 103.032 38.808H99.528V36.792ZM93.48 36.312V34.008C93.72 33.912 93.888 33.816 93.984 33.744H96.576V36.312H93.48ZM102.648 33.744V36.312H99.528V33.744H102.648ZM152.304 31.68C152.472 31.68 152.568 31.56 152.568 31.44C152.568 31.248 152.544 31.2 151.608 30.264C150.552 29.208 150.48 29.16 150.24 29.16C149.976 29.16 149.928 29.184 148.344 31.2H144.36C144.792 30.648 145.176 30.072 145.488 29.544C146.184 29.376 146.4 29.256 146.4 28.968C146.4 28.704 146.256 28.56 143.088 27.48C143.016 27.936 142.896 28.488 142.776 28.92C142.056 31.536 141.144 33.624 140.424 34.608C140.376 34.584 140.328 34.584 140.28 34.584C140.064 34.584 139.944 34.656 139.104 35.736H137.664C138.072 35.52 138.312 35.088 138.312 34.416C138.312 33.936 138.096 33.504 137.712 33.144C138.624 32.52 139.416 31.968 140.424 31.224C141.6 31.008 141.744 30.912 141.744 30.6C141.744 30.336 141.696 30.216 140.808 29.4C139.536 28.272 139.416 28.224 139.176 28.224C138.96 28.224 138.864 28.272 137.832 29.352H134.352C133.656 29.352 132.792 29.304 131.664 29.16L131.904 30C133.008 29.856 133.8 29.832 134.352 29.832H138.048C137.616 30.888 137.256 31.728 136.848 32.544C135.864 32.088 134.448 31.824 132.696 31.872C132.552 31.872 132.504 32.064 132.648 32.112C133.944 32.52 135.048 33.744 135.576 35.064C135.696 35.376 135.816 35.592 136.032 35.736H133.248C132.552 35.736 131.688 35.688 130.56 35.544L130.8 36.384C131.904 36.24 132.696 36.216 133.248 36.216H134.808C134.28 39.648 131.712 45.144 129.888 46.68C129.768 46.776 129.96 46.968 130.08 46.896C131.856 45.912 134.088 43.584 135.672 41.04C135.648 42.672 135.576 45.192 135.576 45.696C135.576 46.44 135.192 46.752 134.616 46.824C134.04 46.896 133.44 46.92 131.952 46.944C131.808 46.944 131.808 47.136 131.952 47.184C133.8 47.784 134.304 48.192 134.616 49.2C134.76 49.656 134.952 49.776 135.264 49.776C135.792 49.776 136.32 49.656 136.944 49.296C137.808 48.792 138.264 48.144 138.264 47.064C138.264 46.296 138.144 45.168 138.096 42.288L138 36.792C138.336 36.528 138.48 36.384 138.504 36.216H139.368C139.056 37.368 138.672 38.592 138.384 39.36C138.336 39.504 138.456 39.552 138.576 39.48C139.656 38.736 140.232 38.304 141.576 37.392C142.704 37.176 142.824 37.104 142.824 36.84C142.824 36.552 142.776 36.432 141.936 35.712C141.36 35.232 141.024 34.944 140.808 34.8C141.696 34.104 142.632 33.216 143.496 32.232C143.616 33.576 144.048 34.968 144.648 36.048C142.848 38.088 140.472 39.864 138.456 40.512C138.312 40.56 138.384 40.776 138.528 40.752C140.16 40.464 141.768 39.96 143.256 39.216C143.256 39.816 143.232 40.416 143.208 40.848C143.184 41.208 143.136 41.592 143.064 41.952L142.032 41.976C141.312 42 140.352 41.928 139.272 41.832L139.512 42.648C140.568 42.528 141.432 42.48 142.032 42.456L142.968 42.432C142.704 43.728 142.248 44.952 141.624 45.984C140.4 48 138.504 49.464 136.584 49.92C136.44 49.944 136.488 50.184 136.632 50.16C139.728 49.872 142.848 48 144.216 46.056C144.984 44.976 145.488 43.776 145.824 42.384L148.056 42.336C147.768 44.76 147.528 45.744 147.192 46.632C147 47.136 146.616 47.376 145.992 47.448C145.56 47.496 144.936 47.52 143.832 47.52C143.688 47.52 143.664 47.712 143.808 47.76C144.984 48.12 145.536 48.648 145.68 49.584C145.752 50.016 145.872 50.184 146.28 50.184C147.696 50.184 148.848 49.752 149.496 48.936C150.048 48.24 150.672 46.92 150.96 43.272C151.656 42.768 151.728 42.672 151.728 42.408C151.728 42.144 151.656 42.024 150.72 41.304C149.544 40.416 149.376 40.368 149.136 40.368C148.872 40.368 148.752 40.44 147.576 41.856L145.944 41.904C146.016 41.472 146.088 41.016 146.16 40.56C146.856 40.2 146.952 40.056 146.952 39.792C146.952 39.504 146.712 39.312 144.12 38.76C144.744 38.424 145.32 38.04 145.872 37.632C147.36 39.048 149.328 40.032 150.792 40.416C151.176 40.512 151.392 40.32 151.536 39.936C151.824 39.12 152.376 38.184 153.216 37.728C153.336 37.656 153.36 37.536 153.216 37.512C151.536 37.248 149.4 36.624 147.84 35.808C148.464 35.112 149.016 34.344 149.496 33.504C150.24 33.336 150.336 33.192 150.336 32.928C150.336 32.688 150.168 32.544 148.176 31.68H152.304ZM143.976 31.68H147.288C147.144 32.112 147.024 32.4 146.784 32.88C146.544 33.408 146.208 33.936 145.848 34.464C145.008 33.72 144.312 32.808 143.832 31.872L143.976 31.68ZM184.32 30.984C184.512 30.984 184.584 30.888 184.584 30.744C184.584 30.528 184.512 30.432 183.72 29.688C182.496 28.512 182.4 28.464 182.16 28.464C181.944 28.464 181.872 28.488 180.264 30.504H177.552C176.784 30.504 176.16 30.48 174.648 30.336L174.864 31.152C176.256 31.032 176.832 30.984 177.552 30.984H184.32ZM181.056 40.68V41.376C181.056 42.096 181.344 42.216 182.184 42.216C183.432 42.216 184.104 41.904 184.104 41.256C184.104 40.872 183.96 39.456 183.96 36.72V35.856C184.632 35.328 184.68 35.256 184.68 35.04C184.68 34.848 184.608 34.728 183.72 34.008C182.592 33.096 182.496 33.072 182.256 33.072C182.04 33.072 181.92 33.12 180.84 34.392H178.872C178.56 34.128 177.648 33.816 175.512 33.264C175.608 34.632 175.632 35.472 175.632 37.392C175.632 41.232 175.632 43.008 175.248 45.144C174.864 47.256 174.096 48.96 173.04 50.064C172.944 50.16 173.088 50.328 173.208 50.256C175.152 48.936 176.376 47.472 177.216 45.552C177.816 44.184 178.152 42.816 178.296 40.68H181.056ZM178.32 40.2C178.368 39.408 178.392 38.496 178.392 37.464V35.16C178.632 35.04 178.776 34.968 178.896 34.872H181.056V40.2H178.32ZM188.04 35.544V30.936C188.208 30.864 188.328 30.792 188.424 30.72C190.776 30.624 192.312 30.528 194.328 30.432C195.096 30.552 195.384 30.432 195.384 30.12C195.384 29.688 195.12 29.376 192.648 27.624C192.36 27.84 192.144 27.984 191.496 28.392C190.68 28.92 189.36 29.592 188.256 30.072C187.824 29.832 186.864 29.568 185.088 29.16C185.184 30.264 185.28 32.136 185.28 35.856C185.28 44.832 183.096 48.096 179.544 49.968C179.424 50.04 179.52 50.256 179.664 50.208C184.92 48.576 188.04 44.664 188.04 36.648V36.024H189.816C189.864 36.864 189.84 38.112 189.84 40.632C189.84 46.008 189.72 48.576 189.72 49.248C189.72 49.968 189.96 50.16 191.088 50.16C192.24 50.16 192.96 49.8 192.96 49.104C192.96 48.288 192.744 45.96 192.744 40.992V36.6C193.08 36.408 193.272 36.216 193.32 36.024H195.912C196.104 36.024 196.176 35.928 196.176 35.784C196.176 35.616 196.032 35.424 195.264 34.656C194.208 33.576 194.136 33.552 193.92 33.552C193.704 33.552 193.656 33.576 192.096 35.544H188.04Z" fill="#333333"/>
<path d="M4.116 10.358C4.41 10.218 4.48 10.148 4.48 10.05C4.48 9.98 4.396 9.896 4.088 9.812C4.76 9.182 5.334 8.496 5.838 7.67C6.3 7.502 6.398 7.432 6.398 7.292C6.398 7.138 6.356 7.068 5.824 6.606C5.222 6.088 5.166 6.06 5.04 6.06C4.942 6.06 4.858 6.116 4.228 6.914H4.102V5.094C4.578 4.926 4.648 4.8 4.648 4.674C4.648 4.492 4.522 4.38 2.38 4.156C2.45 4.856 2.45 5.122 2.45 5.556V6.914H2.282C1.778 6.914 1.246 6.9 0.476 6.816L0.602 7.292C1.274 7.208 1.778 7.194 2.282 7.194H4.27C3.458 8.916 1.946 10.834 0.308 12.122C0.238 12.178 0.336 12.29 0.406 12.248C1.176 11.856 1.876 11.464 2.506 11.044L2.464 13.004C2.422 14.978 2.338 16.49 2.338 16.77C2.338 17.176 2.422 17.274 2.996 17.274C3.822 17.274 4.13 17.092 4.13 16.7C4.13 15.65 4.116 13.718 4.116 11.842V10.792C4.536 11.156 4.69 11.66 4.732 12.36C4.774 12.934 5.04 13.228 5.516 13.228C6.09 13.228 6.454 12.794 6.454 12.22C6.454 11.38 5.67 10.624 4.116 10.54V10.358ZM10.136 16.266V9.756H13.314C13.398 9.756 13.454 9.686 13.454 9.588C13.454 9.476 13.37 9.364 12.922 8.916C12.194 8.202 12.124 8.146 11.998 8.146C11.858 8.146 11.788 8.216 10.948 9.476H10.136V5.374C10.626 5.164 10.738 5.01 10.738 4.856C10.738 4.632 10.444 4.464 8.246 4.31C8.302 5.108 8.316 6.214 8.316 8.44V9.476H7.098C6.706 9.476 6.188 9.448 5.558 9.378L5.684 9.854C6.244 9.77 6.65 9.756 7.098 9.756H8.316V16.266H6.72C6.272 16.266 5.908 16.252 5.026 16.168L5.152 16.644C5.964 16.574 6.3 16.546 6.72 16.546H13.678C13.79 16.546 13.832 16.49 13.832 16.406C13.832 16.28 13.762 16.196 13.286 15.734C12.544 15.02 12.446 14.978 12.32 14.978C12.18 14.978 12.138 15.02 11.27 16.266H10.136ZM17.598 11.926C17.024 11.926 16.338 11.926 15.554 11.828L15.68 12.304C16.45 12.234 17.094 12.206 17.598 12.206H19.18C18.97 13.186 18.746 14.166 18.508 15.048H17.388C16.94 15.048 16.408 15.02 15.946 14.992C16.506 17.148 16.576 17.232 16.772 17.232C16.912 17.232 16.954 17.19 17.122 16.924C19.866 16.322 22.036 15.832 23.534 15.44C23.674 15.734 23.772 16.042 23.856 16.322C23.996 16.826 24.36 17.134 24.78 17.134C25.452 17.134 25.872 16.686 25.872 16C25.872 15.02 24.738 13.606 22.008 13.41C21.924 13.41 21.868 13.508 21.938 13.55C22.526 13.9 22.96 14.39 23.268 14.908C22.162 14.978 20.93 15.02 19.67 15.034C20.202 14.264 20.72 13.494 21.238 12.682C21.658 12.528 21.742 12.402 21.756 12.206H25.97C26.068 12.206 26.124 12.15 26.124 12.066C26.124 11.94 26.082 11.898 25.578 11.436C24.836 10.75 24.78 10.736 24.654 10.736C24.528 10.736 24.486 10.764 23.632 11.926H17.598ZM23.688 10.036C23.786 10.036 23.856 9.994 23.856 9.896C23.856 9.784 23.842 9.742 23.324 9.266C22.75 8.734 22.708 8.72 22.596 8.72C22.484 8.72 22.456 8.748 21.658 9.756H19.474C19.04 9.756 18.55 9.742 17.836 9.658L17.962 10.134C18.634 10.05 19.096 10.036 19.474 10.036H23.688ZM27.692 8.972C26.46 8.678 25.228 8.202 24.22 7.614C23.114 6.984 22.134 6.242 21.448 5.234C21.77 5.122 21.882 5.024 21.882 4.884C21.882 4.688 21.574 4.492 19.418 4.072C19.334 4.506 19.236 4.772 19.138 5.01C18.116 7.544 15.848 10.568 14.462 11.436C14.392 11.478 14.462 11.618 14.546 11.59C16.716 10.764 19.978 7.852 21.238 5.318C21.63 6.676 22.302 7.852 23.282 8.888C23.982 9.63 24.99 10.33 25.858 10.708C25.998 10.764 26.138 10.806 26.264 10.806C26.376 10.806 26.46 10.736 26.544 10.512C26.698 10.106 27.076 9.448 27.692 9.112C27.762 9.07 27.776 8.986 27.692 8.972ZM35.168 8.342H38.388V8.496C38.388 8.832 38.5 8.958 38.948 8.958C39.718 8.958 40.166 8.818 40.166 8.426C40.166 8.146 40.11 7.474 40.11 6.592V5.976C40.418 5.71 40.474 5.654 40.474 5.528C40.474 5.388 40.446 5.332 39.928 4.912C39.242 4.366 39.214 4.366 39.06 4.366C38.92 4.366 38.85 4.394 38.192 5.15H35.462C35.308 4.996 34.818 4.856 33.474 4.534C33.516 5.08 33.53 5.612 33.53 6.396C33.53 7.74 33.46 8.776 33.46 9.014C33.46 9.294 33.572 9.406 34.118 9.406C34.874 9.406 35.168 9.098 35.168 8.636V8.342ZM35.168 8.062V5.626C35.336 5.556 35.448 5.5 35.49 5.43H38.388V8.062H35.168ZM41.3 11.324C41.398 11.324 41.454 11.282 41.454 11.156C41.454 11.058 41.426 11.002 40.922 10.498C40.25 9.826 40.208 9.812 40.054 9.812C39.9 9.812 39.872 9.826 38.976 11.044H37.59V9.546C37.828 9.434 37.94 9.336 37.94 9.21C37.94 8.93 37.646 8.874 35.896 8.706C35.938 9.154 35.952 9.504 35.952 9.882V11.044H33.866C33.404 11.044 32.858 11.016 32.228 10.946L32.368 11.422C32.984 11.352 33.474 11.324 33.866 11.324H34.958C34.384 13.298 33.166 14.908 31.766 16.14C31.752 15.538 31.738 14.404 31.738 12.066V8.93C32.088 8.79 32.172 8.692 32.172 8.566C32.172 8.398 32.018 8.286 31.178 7.964C31.724 7.166 32.2 6.34 32.494 5.612C33.026 5.458 33.11 5.374 33.11 5.192C33.11 4.968 32.9 4.856 30.982 4.128C30.926 4.478 30.856 4.814 30.758 5.136C30.03 7.67 28.896 10.274 28.154 11.17C28.098 11.24 28.21 11.338 28.28 11.282C28.798 10.904 29.456 10.218 30.114 9.406L30.072 13.522C30.044 15.468 29.988 16.42 29.988 16.784C29.988 17.148 30.072 17.26 30.604 17.26C31.36 17.26 31.766 17.05 31.766 16.658V16.336C33.558 15.58 35.098 14.32 35.98 12.808C35.924 15.16 35.882 16.63 35.882 16.826C35.882 17.134 35.98 17.274 36.386 17.274C37.31 17.274 37.632 17.064 37.632 16.7C37.632 16.476 37.59 15.608 37.576 14.53L37.52 11.324H37.548C37.716 12.682 38.094 13.648 38.584 14.334C39.088 15.034 39.536 15.44 40.012 15.762C40.208 15.902 40.334 15.93 40.418 15.93C40.558 15.93 40.656 15.86 40.768 15.636C40.964 15.244 41.454 14.572 41.846 14.418C41.93 14.39 41.93 14.306 41.846 14.278C41.118 14.054 40.376 13.76 39.634 13.284C38.682 12.668 38.01 12.052 37.688 11.324H41.3ZM44.94 5.066C44.814 4.912 44.366 4.73 42.966 4.408C43.078 5.402 43.064 6.186 43.064 10.176C43.064 15.356 42.966 16.406 42.966 16.798C42.966 17.148 43.064 17.26 43.596 17.26C44.268 17.26 44.688 17.078 44.688 16.686C44.688 16.308 44.674 15.552 44.66 12.458C44.996 12.612 45.178 12.864 45.29 13.368C45.346 13.62 45.458 13.746 45.612 13.746C45.962 13.746 46.536 13.466 46.858 13.116C47.236 12.696 47.474 12.22 47.474 11.366C47.474 10.722 47.222 10.078 46.746 9.532C47.418 9.266 48.118 8.832 48.79 8.272L48.916 8.706C49.364 8.65 49.658 8.622 49.924 8.608C49.952 8.888 49.966 9.266 49.966 10.022H49.266C49.112 9.896 48.72 9.742 47.698 9.504C47.74 9.966 47.74 10.302 47.74 11.002C47.74 11.912 47.67 12.626 47.67 12.906C47.67 13.256 47.726 13.312 48.244 13.312C48.762 13.312 49.056 13.2 49.056 12.794V12.528H49.854C49.434 14.992 47.894 16.518 45.5 17.064C45.416 17.078 45.458 17.218 45.542 17.218C48.622 16.966 50.918 15.636 51.45 12.528H51.492C51.52 13.606 51.842 14.712 52.234 15.37C52.682 16.098 53.354 16.728 53.942 17.022C54.012 17.05 54.138 17.106 54.208 17.106C54.334 17.106 54.404 17.036 54.488 16.854C54.74 16.336 55.244 15.72 55.706 15.44C55.776 15.398 55.79 15.3 55.706 15.286C54.978 15.16 53.578 14.628 52.85 14.068C52.262 13.606 51.87 13.102 51.646 12.528H52.682V12.64C52.682 12.99 52.808 13.088 53.214 13.088C53.886 13.088 54.32 12.92 54.32 12.458C54.32 12.164 54.25 11.702 54.25 11.31V10.792C54.586 10.512 54.6 10.484 54.6 10.358C54.6 10.232 54.572 10.176 53.97 9.714C53.438 9.308 53.368 9.28 53.256 9.28C53.144 9.28 53.102 9.294 52.514 10.022H51.562V8.93C51.842 8.776 51.856 8.692 51.856 8.608H52.85C52.948 8.608 53.004 8.552 53.004 8.482C53.004 8.384 52.962 8.356 52.514 7.88C52.094 7.446 52.052 7.432 51.94 7.432C51.828 7.432 51.8 7.46 51.198 8.328H50.288C49.868 8.328 49.504 8.314 48.832 8.23C49.77 7.432 50.624 6.382 51.156 5.164C51.506 6.312 51.926 6.942 52.528 7.698C53.074 8.37 53.802 9.042 54.292 9.252C54.404 9.308 54.446 9.322 54.53 9.322C54.628 9.322 54.698 9.266 54.782 9.07C55.076 8.342 55.44 7.824 55.804 7.67C55.888 7.642 55.888 7.544 55.804 7.53C55.02 7.404 54.11 7.054 53.41 6.69C52.5 6.228 51.842 5.682 51.366 5.094C51.66 5.066 51.772 4.954 51.772 4.772C51.772 4.59 51.492 4.506 49.532 4.002C49.476 4.352 49.392 4.604 49.35 4.786C48.888 6.536 47.614 8.692 46.648 9.406C46.354 9.098 45.976 8.804 45.542 8.552C45.388 8.468 45.374 8.356 45.472 8.23C45.92 7.698 46.438 7.026 47.166 6.088C47.754 5.794 47.796 5.738 47.796 5.598C47.796 5.472 47.726 5.374 47.306 5.024C46.536 4.38 46.438 4.352 46.298 4.352C46.172 4.352 46.116 4.366 45.598 5.066H44.94ZM52.682 10.302V12.248H51.492C51.534 11.884 51.562 11.492 51.562 11.072V10.302H52.682ZM49.056 12.248V10.456C49.168 10.386 49.238 10.344 49.28 10.302H49.966V11.114C49.966 11.506 49.938 11.884 49.896 12.248H49.056ZM44.66 5.542C44.786 5.458 44.87 5.402 44.912 5.346H45.738C45.486 6.508 45.276 7.334 45.052 8.188C44.996 8.426 45.024 8.552 45.164 8.72C45.654 9.35 45.962 10.05 45.962 10.932C45.962 11.8 45.528 12.248 44.66 12.248V5.542ZM62.202 6.438C62.23 6.942 62.454 7.32 63.042 7.32C63.658 7.32 64.092 6.928 64.092 6.214C64.092 5.318 63.126 4.562 61.684 4.324C61.6 4.31 61.53 4.408 61.586 4.464C61.908 4.758 62.146 5.136 62.202 6.438ZM58.73 4.828C59.108 5.094 59.346 5.43 59.528 6.704C59.584 7.306 59.864 7.544 60.326 7.544C61.012 7.544 61.404 7.096 61.404 6.452C61.404 5.472 60.34 4.772 58.828 4.688C58.744 4.688 58.66 4.786 58.73 4.828ZM63.042 11.002C63.084 10.652 63.112 10.274 63.14 9.882C63.574 9.714 63.714 9.574 63.714 9.42C63.714 9.154 63.294 8.958 61.25 8.846C61.32 9.238 61.306 9.504 61.292 9.938C61.278 10.33 61.25 10.694 61.222 11.03L59.444 11.058C59.01 11.072 58.506 11.044 57.778 10.988L57.918 11.464C58.576 11.38 59.052 11.352 59.444 11.338L61.194 11.31C61.054 12.654 60.746 13.508 60.144 14.46C59.36 15.692 58.03 16.602 56.546 17.036C56.462 17.064 56.518 17.204 56.602 17.19C58.702 16.868 60.172 16.196 61.292 15.09C62.202 14.208 62.748 13.032 63 11.282L65.366 11.24C65.282 13.144 65.156 14.208 65.002 14.656C64.848 15.118 64.568 15.272 64.204 15.314C63.84 15.356 63.336 15.384 62.286 15.272C62.202 15.258 62.202 15.398 62.286 15.426C63.21 15.79 63.616 16.154 63.77 16.84C63.84 17.092 63.98 17.162 64.344 17.162C65.366 17.162 66.164 16.686 66.556 15.776C66.85 15.104 67.032 13.55 67.13 11.758C67.592 11.492 67.648 11.38 67.648 11.254C67.648 11.142 67.606 11.072 67.102 10.666C66.388 10.092 66.29 10.05 66.108 10.05C65.94 10.05 65.87 10.092 65.156 10.96L63.042 11.002ZM64.974 7.992C65.632 7.376 66.304 6.662 67.032 5.892C67.634 5.808 67.76 5.696 67.76 5.486C67.76 5.304 67.494 5.066 65.38 4.352C65.338 4.618 65.296 4.814 65.254 4.982C64.974 6.032 64.694 6.858 64.204 7.992H58.548C58.408 7.656 58.198 7.348 57.96 7.068C57.904 6.998 57.806 7.012 57.806 7.096C57.862 7.922 57.61 8.23 57.106 8.594C56.686 8.888 56.518 9.182 56.518 9.574C56.518 10.078 56.854 10.456 57.428 10.456C58.17 10.456 58.772 9.896 58.772 9.07C58.772 8.79 58.73 8.524 58.646 8.272H67.186C67.046 8.748 66.892 9.224 66.654 9.868C66.626 9.952 66.682 9.98 66.752 9.938C67.256 9.686 67.634 9.504 67.886 9.406C68.18 9.294 68.418 9.266 68.894 9.252C69.398 9.238 69.552 9.098 69.552 8.832C69.552 8.608 69.384 8.384 68.838 7.866C68.166 7.236 67.998 7.152 67.83 7.152C67.676 7.152 67.606 7.194 66.864 7.992H64.974ZM83.244 6.48C83.342 6.48 83.398 6.41 83.398 6.34C83.398 6.228 83.384 6.2 82.838 5.654C82.222 5.038 82.18 5.01 82.04 5.01C81.886 5.01 81.858 5.024 80.934 6.2H78.61C78.862 5.878 79.086 5.542 79.268 5.234C79.674 5.136 79.8 5.066 79.8 4.898C79.8 4.744 79.716 4.66 77.868 4.03C77.826 4.296 77.756 4.618 77.686 4.87C77.266 6.396 76.734 7.614 76.314 8.188C76.286 8.174 76.258 8.174 76.23 8.174C76.104 8.174 76.034 8.216 75.544 8.846H74.704C74.942 8.72 75.082 8.468 75.082 8.076C75.082 7.796 74.956 7.544 74.732 7.334C75.264 6.97 75.726 6.648 76.314 6.214C77 6.088 77.084 6.032 77.084 5.85C77.084 5.696 77.056 5.626 76.538 5.15C75.796 4.492 75.726 4.464 75.586 4.464C75.46 4.464 75.404 4.492 74.802 5.122H72.772C72.366 5.122 71.862 5.094 71.204 5.01L71.344 5.5C71.988 5.416 72.45 5.402 72.772 5.402H74.928C74.676 6.018 74.466 6.508 74.228 6.984C73.654 6.718 72.828 6.564 71.806 6.592C71.722 6.592 71.694 6.704 71.778 6.732C72.534 6.97 73.178 7.684 73.486 8.454C73.556 8.636 73.626 8.762 73.752 8.846H72.128C71.722 8.846 71.218 8.818 70.56 8.734L70.7 9.224C71.344 9.14 71.806 9.126 72.128 9.126H73.038C72.73 11.128 71.232 14.334 70.168 15.23C70.098 15.286 70.21 15.398 70.28 15.356C71.316 14.782 72.618 13.424 73.542 11.94C73.528 12.892 73.486 14.362 73.486 14.656C73.486 15.09 73.262 15.272 72.926 15.314C72.59 15.356 72.24 15.37 71.372 15.384C71.288 15.384 71.288 15.496 71.372 15.524C72.45 15.874 72.744 16.112 72.926 16.7C73.01 16.966 73.122 17.036 73.304 17.036C73.612 17.036 73.92 16.966 74.284 16.756C74.788 16.462 75.054 16.084 75.054 15.454C75.054 15.006 74.984 14.348 74.956 12.668L74.9 9.462C75.096 9.308 75.18 9.224 75.194 9.126H75.698C75.516 9.798 75.292 10.512 75.124 10.96C75.096 11.044 75.166 11.072 75.236 11.03C75.866 10.596 76.202 10.344 76.986 9.812C77.644 9.686 77.714 9.644 77.714 9.49C77.714 9.322 77.686 9.252 77.196 8.832C76.86 8.552 76.664 8.384 76.538 8.3C77.056 7.894 77.602 7.376 78.106 6.802C78.176 7.586 78.428 8.398 78.778 9.028C77.728 10.218 76.342 11.254 75.166 11.632C75.082 11.66 75.124 11.786 75.208 11.772C76.16 11.604 77.098 11.31 77.966 10.876C77.966 11.226 77.952 11.576 77.938 11.828C77.924 12.038 77.896 12.262 77.854 12.472L77.252 12.486C76.832 12.5 76.272 12.458 75.642 12.402L75.782 12.878C76.398 12.808 76.902 12.78 77.252 12.766L77.798 12.752C77.644 13.508 77.378 14.222 77.014 14.824C76.3 16 75.194 16.854 74.074 17.12C73.99 17.134 74.018 17.274 74.102 17.26C75.908 17.092 77.728 16 78.526 14.866C78.974 14.236 79.268 13.536 79.464 12.724L80.766 12.696C80.598 14.11 80.458 14.684 80.262 15.202C80.15 15.496 79.926 15.636 79.562 15.678C79.31 15.706 78.946 15.72 78.302 15.72C78.218 15.72 78.204 15.832 78.288 15.86C78.974 16.07 79.296 16.378 79.38 16.924C79.422 17.176 79.492 17.274 79.73 17.274C80.556 17.274 81.228 17.022 81.606 16.546C81.928 16.14 82.292 15.37 82.46 13.242C82.866 12.948 82.908 12.892 82.908 12.738C82.908 12.584 82.866 12.514 82.32 12.094C81.634 11.576 81.536 11.548 81.396 11.548C81.242 11.548 81.172 11.59 80.486 12.416L79.534 12.444C79.576 12.192 79.618 11.926 79.66 11.66C80.066 11.45 80.122 11.366 80.122 11.212C80.122 11.044 79.982 10.932 78.47 10.61C78.834 10.414 79.17 10.19 79.492 9.952C80.36 10.778 81.508 11.352 82.362 11.576C82.586 11.632 82.712 11.52 82.796 11.296C82.964 10.82 83.286 10.274 83.776 10.008C83.846 9.966 83.86 9.896 83.776 9.882C82.796 9.728 81.55 9.364 80.64 8.888C81.004 8.482 81.326 8.034 81.606 7.544C82.04 7.446 82.096 7.362 82.096 7.208C82.096 7.068 81.998 6.984 80.836 6.48H83.244ZM78.386 6.48H80.318C80.234 6.732 80.164 6.9 80.024 7.18C79.884 7.488 79.688 7.796 79.478 8.104C78.988 7.67 78.582 7.138 78.302 6.592L78.386 6.48ZM91.798 9.574V5.458C92.316 5.262 92.386 5.136 92.386 4.968C92.386 4.702 92.148 4.562 89.782 4.422C89.866 5.248 89.866 5.724 89.866 6.662V9.574H86.73C86.24 9.574 85.68 9.546 84.756 9.476L84.896 9.952C85.694 9.882 86.24 9.854 86.73 9.854H89.866V16.056H87.43C86.94 16.056 86.422 16.028 85.498 15.958L85.638 16.434C86.436 16.364 86.94 16.336 87.43 16.336H96.488C96.6 16.336 96.67 16.28 96.67 16.182C96.67 16.07 96.642 16 95.914 15.272C95.186 14.53 95.116 14.516 94.976 14.516C94.836 14.516 94.794 14.558 93.688 16.056H91.798V9.854H97.146C97.258 9.854 97.328 9.798 97.328 9.7C97.328 9.546 97.272 9.476 96.726 8.93C95.816 8.02 95.76 7.992 95.578 7.992C95.424 7.992 95.368 8.048 94.276 9.574H91.798ZM99.47 4.506C99.932 4.898 100.044 5.304 100.114 6.256C100.156 6.76 100.464 7.054 100.954 7.054C101.514 7.054 101.934 6.648 101.934 5.976C101.934 5.052 101.01 4.436 99.512 4.394C99.428 4.394 99.4 4.45 99.47 4.506ZM99.806 10.512C100.394 10.512 100.786 10.078 100.786 9.42C100.786 8.664 99.988 7.978 98.49 7.992C98.406 7.992 98.392 8.048 98.448 8.104C98.84 8.496 98.994 8.874 99.022 9.644C99.036 10.204 99.316 10.512 99.806 10.512ZM101.374 12.738C101.64 11.324 102.116 8.692 102.69 5.472C102.704 5.388 102.564 5.346 102.536 5.43C101.528 8.524 100.702 10.876 100.002 12.626C99.806 13.102 99.638 13.354 99.316 13.354C99.148 13.354 98.994 13.34 98.812 13.326C98.728 13.326 98.714 13.466 98.798 13.494C99.708 13.83 99.904 14.278 99.904 14.824C99.904 15.23 99.82 15.86 99.82 16.182C99.82 16.714 100.1 17.19 100.828 17.19C101.57 17.19 102.046 16.658 102.046 16C102.046 15.286 101.304 14.544 101.304 13.676C101.304 13.34 101.318 13.032 101.374 12.738ZM107.1 11.086V8.104H110.726C110.838 8.104 110.88 8.048 110.88 7.922C110.88 7.81 110.838 7.74 110.292 7.222C109.592 6.578 109.536 6.536 109.41 6.536C109.284 6.536 109.228 6.606 108.304 7.824H107.1V5.388C107.576 5.192 107.646 5.108 107.646 4.912C107.646 4.632 107.394 4.506 105.224 4.366C105.308 5.122 105.308 5.598 105.308 6.382V7.824H104.244C103.796 7.824 103.432 7.81 102.55 7.726L102.676 8.202C103.488 8.132 103.824 8.104 104.244 8.104H105.308V11.086H103.698C103.25 11.086 102.886 11.072 102.004 10.988L102.13 11.464C102.942 11.394 103.278 11.366 103.698 11.366H105.168C105.126 11.646 105.07 11.884 104.986 12.192C104.706 13.144 104.482 13.788 104.076 14.796H103.138C102.816 14.796 102.536 14.796 102.074 14.768C102.676 16.868 102.704 16.966 102.928 16.966C103.068 16.966 103.166 16.882 103.278 16.644C105.252 16.266 107.058 15.86 108.948 15.37C108.99 15.566 109.018 15.776 109.046 15.986C109.116 16.56 109.424 16.98 110.012 16.98C110.656 16.98 111.104 16.49 111.104 15.706C111.104 14.6 109.998 13.382 107.786 13.004C107.702 12.99 107.632 13.088 107.702 13.144C108.206 13.564 108.556 14.11 108.78 14.782C107.506 14.81 106.274 14.81 105.042 14.81C105.742 13.914 106.358 13.046 107.226 11.772C107.492 11.632 107.604 11.534 107.632 11.366H111.328C111.44 11.366 111.482 11.324 111.482 11.198C111.482 11.086 111.44 11.002 110.88 10.484C110.138 9.784 110.082 9.756 109.956 9.756C109.83 9.756 109.774 9.798 108.808 11.086H107.1ZM119.798 5.444C120.232 5.178 120.33 5.08 120.33 4.87C120.33 4.702 120.008 4.492 117.67 4.198C117.726 4.604 117.74 4.996 117.74 6.088C117.74 9.294 117.026 12.01 116.004 13.676C115.066 15.202 113.988 16.336 112.574 17.036C112.504 17.078 112.574 17.204 112.658 17.176C114.352 16.686 116.144 15.566 117.25 14.194C118.58 12.57 119.392 10.736 119.574 6.998L119.644 6.956C119.658 10.078 119.742 10.778 120.05 12.234C120.414 13.928 121.604 15.79 123.074 16.756C123.284 16.896 123.382 16.952 123.522 16.952C123.634 16.952 123.718 16.91 123.886 16.686C124.32 16.14 124.964 15.692 125.678 15.566C125.762 15.552 125.762 15.454 125.678 15.426C124.068 14.796 121.982 12.976 121.184 11.506C120.344 9.966 119.868 8.118 119.798 5.724V5.444ZM130.211 17.33L135.657 4.184L135.223 4.03L129.777 17.162L130.211 17.33ZM151.689 5.99C151.899 5.99 151.969 5.948 151.969 5.822C151.969 5.682 151.913 5.612 151.465 5.192C150.765 4.52 150.695 4.492 150.583 4.492C150.457 4.492 150.415 4.52 149.449 5.71H147.097C146.705 5.71 146.187 5.668 145.557 5.598L145.683 6.088C146.243 6.004 146.649 5.99 147.097 5.99H151.689ZM140.013 8.174C141.693 7.614 143.597 6.55 144.647 5.71C145.151 5.668 145.291 5.57 145.291 5.402C145.291 5.178 145.179 5.08 143.485 4.058C143.345 4.366 143.135 4.674 142.939 4.94C142.099 6.102 141.063 7.278 139.943 8.034C139.873 8.076 139.929 8.202 140.013 8.174ZM142.085 14.264C142.071 15.734 142.001 16.518 142.001 16.798C142.001 17.176 142.085 17.26 142.631 17.26C143.373 17.26 143.779 17.078 143.779 16.658C143.779 16.392 143.751 15.692 143.751 13.046V10.61C144.129 10.442 144.213 10.358 144.213 10.232C144.213 10.092 144.157 10.008 143.401 9.728C143.737 9.378 144.073 9 144.367 8.622C144.857 8.552 145.011 8.454 145.011 8.286C145.011 8.062 144.899 7.95 143.009 7.068C142.883 7.446 142.799 7.642 142.715 7.824C141.833 9.672 140.657 11.45 139.761 12.304C139.705 12.36 139.789 12.472 139.859 12.43C140.615 12.052 141.385 11.52 142.127 10.904L142.085 14.264ZM146.173 9.224C145.781 9.224 145.263 9.182 144.633 9.112L144.759 9.602C145.319 9.518 145.725 9.504 146.173 9.504H148.791C148.819 9.98 148.819 10.386 148.819 11.114V14.88C148.819 15.286 148.623 15.412 148.231 15.468C147.839 15.524 147.181 15.566 146.607 15.566C146.523 15.566 146.523 15.692 146.607 15.72C147.629 16.028 147.937 16.28 148.161 16.882C148.273 17.176 148.371 17.26 148.637 17.26C149.029 17.26 149.379 17.19 149.701 17.05C150.359 16.77 150.695 16.308 150.695 15.398C150.695 14.684 150.597 12.738 150.597 10.54V9.882C150.835 9.728 150.919 9.644 150.933 9.504H152.725C152.935 9.504 153.005 9.462 153.005 9.336C153.005 9.224 152.963 9.126 152.529 8.72C151.703 7.922 151.647 7.908 151.493 7.908C151.339 7.908 151.283 7.95 150.345 9.224H146.173ZM166.809 7.936C166.907 7.936 166.963 7.866 166.963 7.796C166.963 7.684 166.921 7.614 166.501 7.222C165.647 6.424 165.591 6.41 165.479 6.41C165.381 6.41 165.339 6.438 164.429 7.656H162.133C162.497 6.928 162.819 6.116 163.099 5.262C163.533 5.122 163.617 5.024 163.617 4.87C163.617 4.66 163.421 4.534 161.195 4.156C161.195 4.422 161.181 4.758 161.153 5.01C160.957 6.732 160.593 8.412 160.187 9.63C160.131 9.532 160.019 9.364 159.767 9.084C159.389 8.636 159.319 8.566 159.207 8.566C159.081 8.566 159.025 8.65 158.381 9.644V6.158C158.549 6.13 158.619 6.088 158.647 6.032H160.607C160.705 6.032 160.761 5.99 160.761 5.864C160.761 5.766 160.677 5.668 160.271 5.262C159.725 4.702 159.655 4.646 159.543 4.646C159.417 4.646 159.375 4.688 158.563 5.752H155.651C155.231 5.752 154.671 5.724 154.041 5.654L154.181 6.13C154.797 6.06 155.301 6.032 155.651 6.032H156.785C156.799 6.298 156.799 6.564 156.799 6.83V13.788L156.057 13.872V9.224C156.407 9.056 156.463 8.93 156.463 8.818C156.463 8.636 156.099 8.524 154.615 8.356C154.685 8.972 154.685 9.518 154.685 10.512V14.012H154.629C154.419 14.026 154.125 14.068 153.705 14.096C154.335 16.07 154.475 16.308 154.657 16.308C154.839 16.308 154.923 16.21 155.035 15.832C156.883 15.188 159.375 14.096 160.789 13.312C160.859 13.27 160.817 13.158 160.733 13.172C160.215 13.284 159.347 13.438 158.381 13.578V9.924H160.089C159.907 10.414 159.711 10.82 159.529 11.086C159.487 11.156 159.585 11.226 159.655 11.17C160.103 10.82 160.677 10.134 161.265 9.224C161.349 10.904 161.601 12.15 161.979 13.214C160.747 14.922 158.857 16.294 156.323 17.036C156.239 17.064 156.281 17.204 156.365 17.19C158.997 16.868 161.111 16 162.665 14.558C163.211 15.426 164.121 16.392 164.877 16.896C165.115 17.05 165.227 17.078 165.311 17.078C165.437 17.078 165.563 16.994 165.689 16.812C166.081 16.28 166.543 15.776 167.229 15.566C167.313 15.538 167.341 15.454 167.257 15.426C165.815 14.95 164.527 14.082 163.771 13.284C164.569 12.122 165.129 10.708 165.409 9.014C165.801 8.86 165.927 8.762 165.927 8.622C165.927 8.44 165.787 8.328 164.289 7.936H166.809ZM163.799 7.936C163.785 8.244 163.771 8.454 163.715 8.832C163.575 9.924 163.253 10.988 162.735 11.982C162.231 11.1 161.839 10.036 161.573 8.72C161.713 8.468 161.853 8.216 161.993 7.936H163.799ZM172.297 12.752C172.157 12.626 171.709 12.472 170.309 12.15C170.379 12.78 170.379 13.55 170.379 14.208C170.379 15.174 170.281 16.35 170.281 16.728C170.281 17.218 170.393 17.274 170.939 17.274C171.667 17.274 172.031 17.078 172.031 16.42V16.35H176.665V16.532C176.665 17.008 176.763 17.134 177.379 17.134C178.275 17.134 178.583 16.882 178.583 16.448C178.583 16.098 178.485 15.188 178.485 14.264V13.732C178.849 13.41 178.877 13.382 178.877 13.242C178.877 13.102 178.849 13.032 178.177 12.542C177.533 12.08 177.463 12.052 177.295 12.052C177.141 12.052 177.085 12.08 176.497 12.752H172.297ZM172.031 16.07V14.67H176.665V16.07H172.031ZM176.665 14.39H172.031V13.256C172.185 13.172 172.269 13.102 172.311 13.032H176.665V14.39ZM174.957 11.422V10.26H179.451C179.549 10.26 179.605 10.218 179.605 10.134C179.605 10.036 179.577 9.98 179.059 9.504C178.611 9.084 178.555 9.07 178.457 9.07C178.415 9.07 178.373 9.084 178.331 9.112C178.415 9.014 178.457 8.888 178.457 8.734C178.457 8.538 178.415 8.062 178.401 7.418H180.585C180.683 7.418 180.739 7.39 180.739 7.264C180.739 7.166 180.711 7.124 180.249 6.676C179.675 6.116 179.633 6.102 179.507 6.102C179.381 6.102 179.339 6.13 178.569 7.138H178.401V6.508C178.751 6.214 178.765 6.186 178.765 6.074C178.765 5.948 178.709 5.878 178.205 5.472C177.645 5.01 177.561 4.996 177.421 4.996C177.295 4.996 177.239 5.024 176.623 5.724H174.957V5.08C175.433 4.912 175.503 4.786 175.503 4.632C175.503 4.394 175.209 4.24 173.137 4.114C173.221 4.8 173.221 5.108 173.221 5.724H171.499C171.079 5.724 170.449 5.696 169.763 5.626L169.889 6.102C170.561 6.018 171.163 6.004 171.499 6.004H173.221V7.138H170.099C169.679 7.138 169.049 7.11 168.363 7.04L168.489 7.516C169.161 7.432 169.763 7.418 170.099 7.418H173.221V8.622H171.443C171.023 8.622 170.393 8.594 169.707 8.524L169.833 9C170.505 8.916 171.107 8.902 171.443 8.902H173.221V9.98H170.841C170.407 9.98 169.903 9.952 169.175 9.882L169.315 10.358C169.973 10.288 170.449 10.26 170.841 10.26H173.221V11.422H170.015C169.595 11.422 168.965 11.394 168.279 11.324L168.405 11.8C169.077 11.716 169.679 11.702 170.015 11.702H180.683C180.781 11.702 180.823 11.646 180.823 11.562C180.823 11.464 180.795 11.394 180.319 10.974C179.717 10.442 179.661 10.414 179.535 10.414C179.409 10.414 179.367 10.456 178.597 11.422H174.957ZM174.957 8.902H176.791C176.791 9.336 176.875 9.378 177.393 9.378C177.813 9.378 178.079 9.308 178.247 9.182C178.135 9.308 177.939 9.532 177.575 9.98H174.957V8.902ZM174.957 7.418H176.791V8.622H174.957V7.418ZM174.957 6.004H176.791V7.138H174.957V6.004ZM189.237 9.574V5.458C189.755 5.262 189.825 5.136 189.825 4.968C189.825 4.702 189.587 4.562 187.221 4.422C187.305 5.248 187.305 5.724 187.305 6.662V9.574H184.169C183.679 9.574 183.119 9.546 182.195 9.476L182.335 9.952C183.133 9.882 183.679 9.854 184.169 9.854H187.305V16.056H184.869C184.379 16.056 183.861 16.028 182.937 15.958L183.077 16.434C183.875 16.364 184.379 16.336 184.869 16.336H193.927C194.039 16.336 194.109 16.28 194.109 16.182C194.109 16.07 194.081 16 193.353 15.272C192.625 14.53 192.555 14.516 192.415 14.516C192.275 14.516 192.233 14.558 191.127 16.056H189.237V9.854H194.585C194.697 9.854 194.767 9.798 194.767 9.7C194.767 9.546 194.711 9.476 194.165 8.93C193.255 8.02 193.199 7.992 193.017 7.992C192.863 7.992 192.807 8.048 191.715 9.574H189.237Z" fill="#333333"/>
</svg>
